<svg id="visual" viewBox="0 0 960 200" width="960" height="200" xmlns="http://www.w3.org/2000/svg" xmlns:xlink="http://www.w3.org/1999/xlink" version="1.1"><rect x="0" y="0" width="960" height="200" fill="#eff6ff"></rect><path d="M0 159L22.8 149.3C45.7 139.7 91.3 120.3 137 116.8C182.7 113.3 228.3 125.7 274 130.3C319.7 135 365.3 132 411.2 132.3C457 132.7 503 136.3 548.8 133C594.7 129.7 640.3 119.3 686 119.5C731.7 119.7 777.3 130.3 823 136.8C868.7 143.3 914.3 145.7 937.2 146.8L960 148L960 0L937.2 0C914.3 0 868.7 0 823 0C777.3 0 731.7 0 686 0C640.3 0 594.7 0 548.8 0C503 0 457 0 411.2 0C365.3 0 319.7 0 274 0C228.3 0 182.7 0 137 0C91.3 0 45.7 0 22.8 0L0 0Z" fill="#7cbee9"></path><path d="M0 78L22.8 83.2C45.7 88.3 91.3 98.7 137 103.2C182.7 107.7 228.3 106.3 274 103.2C319.7 100 365.3 95 411.2 91.2C457 87.3 503 84.7 548.8 89.3C594.7 94 640.3 106 686 106.7C731.7 107.3 777.3 96.7 823 95.7C868.7 94.7 914.3 103.3 937.2 107.7L960 112L960 0L937.2 0C914.3 0 868.7 0 823 0C777.3 0 731.7 0 686 0C640.3 0 594.7 0 548.8 0C503 0 457 0 411.2 0C365.3 0 319.7 0 274 0C228.3 0 182.7 0 137 0C91.3 0 45.7 0 22.8 0L0 0Z" fill="#47a6f2"></path><path d="M0 49L22.8 50.2C45.7 51.3 91.3 53.7 137 59C182.7 64.3 228.3 72.7 274 71.3C319.7 70 365.3 59 411.2 56.8C457 54.7 503 61.3 548.8 62.8C594.7 64.3 640.3 60.7 686 60C731.7 59.3 777.3 61.7 823 62.5C868.7 63.3 914.3 62.7 937.2 62.3L960 62L960 0L937.2 0C914.3 0 868.7 0 823 0C777.3 0 731.7 0 686 0C640.3 0 594.7 0 548.8 0C503 0 457 0 411.2 0C365.3 0 319.7 0 274 0C228.3 0 182.7 0 137 0C91.3 0 45.7 0 22.8 0L0 0Z" fill="#2889f6"></path><path d="M0 54L22.8 50.7C45.7 47.3 91.3 40.7 137 37.2C182.7 33.7 228.3 33.3 274 35.2C319.7 37 365.3 41 411.2 41.5C457 42 503 39 548.8 37.3C594.7 35.7 640.3 35.3 686 37.3C731.7 39.3 777.3 43.7 823 46.7C868.7 49.7 914.3 51.3 937.2 52.2L960 53L960 0L937.2 0C914.3 0 868.7 0 823 0C777.3 0 731.7 0 686 0C640.3 0 594.7 0 548.8 0C503 0 457 0 411.2 0C365.3 0 319.7 0 274 0C228.3 0 182.7 0 137 0C91.3 0 45.7 0 22.8 0L0 0Z" fill="#4766ef"></path></svg>